Coordinates
version=1
nRows=60
nColumns=12
inDegrees=yes

Units are S.I. units (second, meters, Newtons, ...)
Angles are in degrees

endheader
time	SC_y	SC_z	SC_x	AC_y	AC_z	AC_x	GH_y	GH_z	GH_yy	EL_x	PS_y
       0.0              -13.73          38.14          43.82          64.74          5.222         -18.05          70.13          14.69         -37.31          115.5          111.1
    0.0249              -13.73          38.14          43.82          64.74          5.223         -18.05           70.1          14.69         -37.31          115.5          111.1
   0.04979              -13.73          38.14          43.82          64.74          5.223         -18.05          70.07          14.69         -37.31          115.5          111.1
   0.07469              -13.73          38.14          43.82          64.74          5.224         -18.05          70.03          14.69         -37.31          115.5          111.0
   0.09959              -13.73          38.14          43.82          64.73          5.225         -18.05          69.99          14.68          -37.3          115.4          111.0
    0.1245              -13.73          38.13          43.82          64.73          5.226         -18.05          69.96          14.68          -37.3          115.4          111.0
    0.1494              -13.72          38.13          43.81          64.73          5.226         -18.05          69.91          14.68          -37.3          115.4          111.0
    0.1743              -13.72          38.13          43.81          64.73          5.227         -18.04          69.87          14.68         -37.29          115.4          111.0
    0.1992              -13.72          38.13          43.81          64.73          5.228         -18.04          69.82          14.67         -37.29          115.4          111.0
    0.2241              -13.72          38.13          43.81          64.73          5.229         -18.04          69.77          14.67         -37.28          115.4          111.0
     0.249              -13.72          38.13          43.81          64.72           5.23         -18.04          69.71          14.67         -37.28          115.4          111.0
    0.2739              -13.72          38.12          43.81          64.72          5.231         -18.04          69.65          14.66         -37.27          115.3          111.0
    0.2988              -13.72          38.12          43.81          64.72          5.233         -18.03          69.59          14.66         -37.27          115.3          111.0
    0.3237              -13.72          38.12          43.81          64.72          5.234         -18.03          69.52          14.65         -37.26          115.3          111.0
    0.3486              -13.72          38.12          43.81          64.71          5.235         -18.03          69.45          14.65         -37.25          115.3          111.0
    0.3735              -13.72          38.12          43.81          64.71          5.237         -18.02          69.36          14.64         -37.25          115.3          110.9
    0.3983              -13.72          38.11           43.8          64.71          5.239         -18.02          69.28          14.64         -37.24          115.2          110.9
    0.4232              -13.72          38.11           43.8           64.7          5.241         -18.02          69.18          14.63         -37.23          115.2          110.9
    0.4481              -13.72          38.11           43.8           64.7          5.243         -18.01          69.07          14.62         -37.22          115.2          110.9
     0.473              -13.72           38.1           43.8           64.7          5.245         -18.01          68.96          14.62         -37.21          115.1          110.9
    0.4979              -13.72           38.1           43.8          64.69          5.247          -18.0          68.83          14.61          -37.2          115.1          110.9
    0.5228              -13.72          38.09          43.79          64.69           5.25          -18.0          68.69           14.6         -37.19          115.1          110.8
    0.5477              -13.72          38.09          43.79          64.68          5.253         -17.99          68.54          14.59         -37.17          115.0          110.8
    0.5726              -13.72          38.08          43.79          64.67          5.257         -17.99          68.37          14.58         -37.16          115.0          110.8
    0.5975              -13.72          38.08          43.78          64.67           5.26         -17.98          68.18          14.56         -37.14          114.9          110.8
    0.6224              -13.72          38.07          43.78          64.66          5.264         -17.97          67.97          14.55         -37.12          114.8          110.7
    0.6473              -13.71          38.07          43.78          64.65          5.269         -17.96          67.73          14.53          -37.1          114.8          110.7
    0.6722              -13.71          38.06          43.77          64.64          5.274         -17.95          67.47          14.52         -37.08          114.7          110.7
    0.6971              -13.71          38.05          43.77          64.63           5.28         -17.94          67.16           14.5         -37.05          114.6          110.6
     0.722              -13.71          38.04          43.76          64.61          5.287         -17.93          66.82          14.47         -37.02          114.5          110.6
    0.7469              -13.71          38.03          43.75           64.6          5.294         -17.92          66.43          14.45         -36.99          114.4          110.5
    0.7718              -13.71          38.01          43.74          64.58          5.303          -17.9          65.99          14.42         -36.95          114.3          110.4
    0.7967               -13.7           38.0          43.74          64.56          5.313         -17.88          65.47          14.38          -36.9          114.1          110.4
    0.8216               -13.7          37.98          43.72          64.54          5.325         -17.86          64.87          14.34         -36.85          113.9          110.3
    0.8465               -13.7          37.96          43.71          64.51          5.339         -17.83          64.17           14.3         -36.79          113.7          110.2
    0.8714              -13.69          37.93           43.7          64.48          5.355          -17.8          63.34          14.24         -36.71          113.5          110.0
    0.8963              -13.69           37.9          43.68          64.45          5.374         -17.76          62.35          14.18         -36.63          113.2          109.9
    0.9212              -13.68          37.86          43.66           64.4          5.397         -17.72          61.17           14.1         -36.52          112.8          109.7
    0.9461              -13.67          37.82          43.63          64.35          5.425         -17.67          59.75          14.01         -36.39          112.4          109.5
     0.971              -13.66          37.77           43.6          64.28           5.46          -17.6           58.0          13.89         -36.24          111.9          109.2
    0.9959              -13.65           37.7          43.56           64.2          5.502         -17.52          55.85          13.75         -36.05          111.2          108.9
     1.021              -13.64          37.62          43.52           64.1          5.554         -17.42          53.17          13.57         -35.81          110.4          108.5
     1.046              -13.62          37.51          43.46          63.97           5.62         -17.29          49.79          13.35         -35.51          109.4          108.0
     1.071               -13.6          37.38          43.38          63.81          5.705         -17.13          45.49          13.06         -35.13          108.2          107.3
     1.095              -13.57          37.21          43.28           63.6          5.812         -16.93          39.99           12.7         -34.64          106.5          106.5
      1.12              -13.54          36.99          43.15          63.33           5.95         -16.66          32.93          12.23         -34.02          104.4          105.4
     1.145              -13.49          36.72          42.99          62.99          6.127         -16.33          23.91          11.64         -33.22          101.7          104.0
      1.17              -13.44          36.37          42.79          62.56          6.349          -15.9          12.58          10.89         -32.22          98.38          102.3
     1.195              -13.37          35.94          42.54          62.04          6.619         -15.39         -1.237          9.973         -30.99          94.27          100.2
      1.22              -13.29          35.45          42.26          61.44          6.933         -14.79         -17.25          8.914         -29.58          89.51          97.74
     1.245               -13.2          34.92          41.95          60.78          7.272         -14.14         -34.59          7.768         -28.04          84.35           95.1
      1.27              -13.11          34.38          41.64          60.13          7.612         -13.49         -51.93          6.621          -26.5          79.19          92.46
     1.295              -13.03          33.89          41.35          59.52          7.925         -12.89         -67.94          5.562         -25.09          74.43          90.01
      1.32              -12.96          33.46           41.1           59.0          8.196         -12.37         -81.76          4.649         -23.86          70.32          87.91
     1.344               -12.9          33.11           40.9          58.57          8.418         -11.95         -93.09          3.899         -22.86          66.95          86.18
     1.369              -12.86          32.84          40.74          58.23          8.594         -11.61         -102.1          3.303         -22.06          64.27           84.8
     1.394              -12.82          32.62          40.61          57.96          8.732         -11.35         -109.2          2.836         -21.43          62.17          83.73
     1.419               -12.8          32.45          40.52          57.75           8.84         -11.14         -114.7          2.473         -20.95          60.54          82.89
     1.444              -12.77          32.32          40.44          57.59          8.924         -10.98         -119.0          2.188         -20.57          59.26          82.23
     1.469              -12.76          32.21          40.38          57.46           8.99         -10.86         -122.3          1.965         -20.27          58.25          81.72
